PathFileType	4	(X/Y/Z)	E:\Qualisys_Data\Carbon_Farble_Plate\Data\Amateur_Runner\S14\T1\S14T1V22_c3d.trc
DataRate	CameraRate	NumFrames	NumMarkers	Units	OrigDataRate	OrigDataStartFrame	OrigNumFrames
200.000000	200.000000	5	39	mm	200.000000	76	304
Frame#	Time	LSHO			RSHO			LICST			RICST			LASIS			LHEEL			RASIS			LTROC			RTROC			SACR			LTH1			LSK4			LTH2			LTH3			RHM5			LSK2			LTH4			RTH1			LTOE			RTH2			RTH3			RTH4			LLEP			RLEP			LSK1			LSK3			RSK1			LHM5			RSK2			LFT1			RSK3			RSK4			LLME			RLME			RTOE			RHEEL			RFT1			RFT2			LFT2			
		X1	Y1	Z1	X2	Y2	Z2	X3	Y3	Z3	X4	Y4	Z4	X5	Y5	Z5	X6	Y6	Z6	X7	Y7	Z7	X8	Y8	Z8	X9	Y9	Z9	X10	Y10	Z10	X11	Y11	Z11	X12	Y12	Z12	X13	Y13	Z13	X14	Y14	Z14	X15	Y15	Z15	X16	Y16	Z16	X17	Y17	Z17	X18	Y18	Z18	X19	Y19	Z19	X20	Y20	Z20	X21	Y21	Z21	X22	Y22	Z22	X23	Y23	Z23	X24	Y24	Z24	X25	Y25	Z25	X26	Y26	Z26	X27	Y27	Z27	X28	Y28	Z28	X29	Y29	Z29	X30	Y30	Z30	X31	Y31	Z31	X32	Y32	Z32	X33	Y33	Z33	X34	Y34	Z34	X35	Y35	Z35	X36	Y36	Z36	X37	Y37	Z37	X38	Y38	Z38	X39	Y39	Z39	

77	0.38	-1225.502685546875	1451.269287109375	-521.0398559570312	-1109.691284179688	1448.165893554688	-247.2231292724609	-1224.43896484375	1007.386657714844	-486.0820007324219	-1165.763793945312	1001.706359863281	-219.6878356933594	-1178.392333984375	957.7574462890624	-463.7647705078125	-1044.899169921875	98.45825958251952	-370.295654296875	-1147.968627929688	955.5646362304688	-236.2913665771484	-1314.021484375	887.2014770507812	-498.3530883789062	-1301.699462890625	928.4594116210938	-168.1810913085938	-1332.092041015625	1015.049621582031	-336.5370178222656	-1152.418701171875	678.6881713867188	-519.099365234375	-1100.568603515625	314.8572998046875	-450.8217468261719	-1213.365966796875	652.25927734375	-475.6101379394531	-1095.24658203125	600.4148559570312	-490.2178344726562	-1833.798950195312	281.3019714355469	-207.7957000732422	-1121.12060546875	411.0999755859375	-467.3731689453125	-1163.029907226562	570.3707275390625	-457.2064208984375	-1261.615478515625	659.4721069335938	-192.9213256835938	-808.488525390625	187.7699737548828	-432.6012878417969	-1330.12451171875	691.3637084960938	-173.6762847900391	-1302.475952148438	569.6854248046875	-215.016845703125	-1377.980712890625	602.62744140625	-193.21923828125	-1089.886840820312	531.2741088867188	-473.0289001464844	-1395.17041015625	532.806884765625	-202.9562072753906	-1040.961791992188	427.6482238769531	-476.2742309570312	-1021.61181640625	328.5334167480469	-464.5913696289062	-1496.028442382812	458.3606567382812	-197.1311798095703	-868.410888671875	137.7784729003906	-481.3399353027344	-1527.842529296875	538.5673217773438	-197.5560302734375	-1021.40380859375	84.43973541259766	-347.5	-1596.506958007812	428.0140686035156	-213.3486328125	-1617.936157226562	504.7423400878906	-211.611328125	-1009.869323730469	144.5359497070312	-438.0890197753906	-1770.690063476562	418.7516174316406	-229.2505950927734	-1819.006469726562	209.8964538574219	-268.1900634765625	-1790.621948242188	469.6477966308594	-284.995849609375	-1821.623657226562	453.9273986816406	-318.534423828125	-1819.043701171875	469.6038208007812	-260.135986328125	-1034.262084960938	70.06458282470703	-398.1381530761719
78	0.385	-1205.0498046875	1447.353149414062	-522.2596435546875	-1089.760620117188	1445.0107421875	-248.4486083984375	-1204.152954101562	1004.118835449219	-486.5777893066406	-1146.157470703125	998.741455078125	-220.2242126464844	-1159.01708984375	954.3973388671876	-464.1948547363281	-1027.221435546875	94.18585205078124	-369.3279418945312	-1127.870849609375	953.0800170898438	-236.6709289550781	-1294.420532226562	883.5166625976562	-498.81005859375	-1281.310302734375	925.2987060546876	-167.3855743408203	-1312.036743164062	1011.7646484375	-336.2782287597656	-1134.303100585938	675.1008911132812	-518.8888549804688	-1083.265747070312	310.9007263183594	-450.1875610351562	-1195.020141601562	649.2068481445312	-474.834228515625	-1077.21826171875	596.3184814453125	-489.4913635253906	-1815.2265625	289.4402770996094	-208.7157592773438	-1104.1572265625	407.3868103027344	-466.9465637207031	-1145.421997070312	567.0021362304688	-456.6373596191406	-1238.618774414062	655.6683349609375	-193.60400390625	-791.6633911132812	184.6123657226562	-431.80029296875	-1307.564453125	686.467529296875	-173.8050384521484	-1278.180908203125	565.2916870117188	-215.2330322265625	-1353.104858398438	596.8421630859375	-193.3765258789062	-1071.950439453125	527.8026733398438	-472.8851928710938	-1370.1396484375	526.662841796875	-203.1766357421875	-1023.361389160156	423.4281311035156	-475.8711242675781	-1004.161254882812	324.634033203125	-464.2581787109375	-1472.728759765625	455.4385681152344	-198.0654296875	-851.3050537109375	134.2712249755859	-480.5498046875	-1501.76220703125	535.9066772460938	-197.3991394042969	-1004.204467773438	80.10245513916016	-346.6340637207031	-1572.919067382812	427.96337890625	-213.4533386230469	-1592.681274414062	505.1432189941406	-212.1653747558594	-992.8175048828124	140.6021270751953	-436.8612670898438	-1749.948486328125	423.6216125488281	-232.3385162353516	-1802.494873046875	217.4083557128906	-269.7261352539062	-1765.23828125	477.0227661132812	-285.9464111328125	-1797.612182617188	461.1990966796875	-319.729736328125	-1795.326171875	476.6967468261719	-260.8649597167969	-1016.744934082031	66.70536041259766	-397.5491943359375
79	0.39	-1184.459838867188	1443.320678710938	-523.9436645507812	-1069.672607421875	1441.821655273438	-249.7524719238281	-1185.2548828125	1001.056213378906	-486.9883117675781	-1125.910400390625	996.4841918945312	-218.5432434082031	-1139.69970703125	951.560546875	-463.8404541015625	-1011.967529296875	90.03572082519531	-367.6576232910156	-1108.14697265625	950.333251953125	-237.1776885986328	-1274.651123046875	879.5641479492188	-498.6173095703125	-1259.994873046875	921.2203979492188	-166.4710998535156	-1293.577758789062	1008.260070800781	-336.9063415527344	-1115.292602539062	671.776611328125	-518.052001953125	-1066.44873046875	307.206787109375	-449.4405517578125	-1176.161010742188	646.1205444335938	-474.298095703125	-1058.733154296875	592.7520751953125	-489.1275024414062	-1794.005859375	297.8235778808594	-209.6129760742188	-1086.70703125	403.4796752929688	-466.1752319335938	-1127.026733398438	563.6568603515625	-456.0141906738281	-1215.336669921875	651.373779296875	-194.0659637451172	-776.2108154296875	179.7934722900391	-431.0940551757812	-1284.28662109375	681.4783935546875	-173.9842529296875	-1253.432006835938	560.37548828125	-214.9552764892578	-1329.227905273438	591.31689453125	-193.4417114257812	-1053.35400390625	524.0223388671875	-472.6045837402344	-1345.511840820312	520.8903198242188	-202.993896484375	-1005.660522460938	419.2413330078125	-475.5996398925781	-987.5740356445312	320.273193359375	-463.2535095214844	-1448.33837890625	452.7090454101562	-197.6367034912109	-836.0610961914062	129.6245727539062	-479.5548400878906	-1474.92431640625	533.3900146484375	-196.9725036621094	-988.754638671875	75.7995834350586	-345.0209655761719	-1549.997802734375	427.4829711914062	-214.6908111572266	-1566.690063476562	505.2731018066406	-212.4566955566406	-977.1998291015624	136.2063140869141	-435.7859191894531	-1724.4443359375	429.9006042480469	-232.0825958251953	-1784.166137695312	225.2315979003906	-271.2313842773438	-1739.977905273438	483.2096252441406	-287.2561340332031	-1772.153686523438	468.2448425292969	-320.56982421875	-1769.616333007812	484.4300842285156	-262.1365966796875	-1001.334289550781	62.25831604003906	-395.9546813964844
80	0.395	-1164.038696289062	1439.073486328125	-525.3781127929688	-1050.007934570312	1438.383422851562	-250.6821899414062	-1166.30126953125	997.78564453125	-487.2574157714844	-1106.150756835938	993.1068725585938	-219.0401611328125	-1119.559204101562	948.6571655273438	-464.9986572265625	-998.072509765625	85.67351531982422	-365.7415466308594	-1088.540649414062	946.9976196289062	-237.4133911132812	-1255.9345703125	875.9478149414062	-499.2638549804688	-1239.501953125	917.140869140625	-165.3997497558594	-1274.018676757812	1003.901672363281	-336.887451171875	-1095.693603515625	668.1554565429688	-516.7891845703125	-1050.383056640625	303.325439453125	-449.0494689941406	-1156.817138671875	643.1670532226562	-474.1618041992188	-1039.678588867188	589.1776733398438	-488.1819763183594	-1773.764892578125	305.1703186035156	-210.7557373046875	-1069.351928710938	400.2668762207031	-465.8384399414062	-1108.43701171875	560.0458984375	-455.4262390136719	-1191.537475585938	647.0787963867188	-193.8267059326172	-762.1110229492188	174.0635681152344	-430.4836730957031	-1261.880004882812	675.5914306640625	-175.1095581054688	-1228.169189453125	555.2595825195312	-215.2573852539062	-1305.117065429688	585.4356689453125	-193.5047607421875	-1034.979736328125	520.33984375	-472.2453002929688	-1319.94482421875	514.2203979492188	-203.3224487304688	-988.0789794921876	414.705322265625	-474.6392822265625	-970.9387817382812	315.7064819335938	-462.439453125	-1423.715698242188	449.4033813476562	-197.8268127441406	-822.4989624023438	123.9817428588867	-478.1526489257812	-1448.036743164062	531.2094116210938	-196.7174377441406	-975.232421875	71.22320556640625	-343.9188537597656	-1525.16552734375	427.1365966796875	-215.423095703125	-1540.303833007812	505.47412109375	-212.7962188720703	-963.3164672851562	131.3054656982422	-434.1362915039062	-1700.60205078125	435.0989379882812	-233.8069915771484	-1765.06005859375	232.0718231201172	-273.0499877929688	-1714.917724609375	488.5846862792969	-289.0440673828125	-1745.63134765625	474.7894592285156	-323.1164245605469	-1744.41455078125	490.7489624023438	-263.6683654785156	-988.3483276367188	57.19857025146484	-393.9375305175781
81	0.4	-1143.753173828125	1434.396606445312	-526.8433227539062	-1030.123779296875	1434.673950195312	-251.6221008300781	-1147.597412109375	994.220458984375	-487.6055603027344	-1086.9326171875	989.76025390625	-218.9085083007812	-1100.578979492188	945.3003540039062	-464.8187255859375	-986.4539184570312	81.77120971679688	-364.3781433105469	-1069.130004882812	943.6638793945312	-237.4486541748047	-1236.626342773438	871.598876953125	-499.1131896972656	-1219.049560546875	912.2689819335938	-164.6860504150391	-1254.650146484375	999.6084594726562	-336.8202819824219	-1075.236328125	664.7679443359375	-515.5413818359375	-1034.31787109375	299.5958251953125	-448.7157897949219	-1137.211059570312	640.3086547851562	-473.7089233398438	-1020.245178222656	585.5281982421875	-487.1428833007812	-1751.869995117188	312.7905578613281	-211.8797760009766	-1051.571044921875	396.525634765625	-466.3067016601562	-1089.406005859375	556.7305297851562	-455.4872131347656	-1168.120849609375	642.4999389648438	-194.2718658447266	-749.1709594726562	166.7551727294922	-429.2014465332031	-1238.159057617188	669.9579467773438	-174.4854888916016	-1203.003295898438	549.9766845703125	-214.8860168457031	-1279.929565429688	578.1692504882812	-193.3574981689453	-1016.121887207031	516.2372436523438	-472.1896057128906	-1293.599853515625	508.1663818359375	-202.3252410888672	-970.1535034179688	409.8854675292969	-473.93994140625	-954.6185302734376	310.60791015625	-460.8703308105469	-1398.320068359375	446.4333801269531	-198.0773315429688	-810.4797973632812	117.2426223754883	-476.5702819824219	-1420.50146484375	528.6140747070312	-197.0862274169922	-962.7776489257812	66.9517822265625	-341.7576904296875	-1500.850708007812	426.3882141113281	-215.5699462890625	-1513.729125976562	505.1479187011719	-213.7896423339844	-950.8073120117188	126.1334381103516	-432.5560607910156	-1674.028198242188	440.2151489257812	-234.5433044433594	-1744.914672851562	239.1596984863281	-273.4478759765625	-1686.795166015625	494.6437683105469	-290.2763977050781	-1717.740356445312	479.383544921875	-323.3720703125	-1716.4970703125	496.1838073730469	-264.7681579589844	-976.8244018554688	53.05338668823242	-393.0462646484375
